<mxfile host="drawio-plugin" modified="2023-02-27T20:22:18.515Z" agent="5.0 (Windows NT 6.2; Win64; x64) AppleWebKit/537.36 (KHTML, like Gecko) Chrome/89.0.4389.114 Safari/537.36" etag="LZfFlZy0GAddMgeyvINo" version="20.5.3" type="embed"><diagram id="23iRSUPoRavnBvh4doch" name="Page-1"><mxGraphModel dx="837" dy="1480" grid="1" gridSize="10" guides="1" tooltips="1" connect="1" arrows="1" fold="1" page="1" pageScale="1" pageWidth="827" pageHeight="1169" math="0" shadow="0"><root><mxCell id="0"/><mxCell id="1" parent="0"/><mxCell id="2" value="" style="whiteSpace=wrap;html=1;aspect=fixed;fontStyle=1" vertex="1" parent="1"><mxGeometry x="160" y="-410" width="1010" height="1010" as="geometry"/></mxCell><mxCell id="3" value="&lt;font style=&quot;font-size: 24px;&quot;&gt;Demographics System&lt;/font&gt;&amp;nbsp;" style="text;html=1;align=center;verticalAlign=middle;resizable=0;points=[];autosize=1;strokeColor=none;fillColor=none;" vertex="1" parent="1"><mxGeometry x="400" y="-405" width="270" height="40" as="geometry"/></mxCell><mxCell id="22" style="edgeStyle=none;rounded=0;orthogonalLoop=1;jettySize=auto;html=1;exitX=1;exitY=0.3333333333333333;exitDx=0;exitDy=0;exitPerimeter=0;fontSize=12;" edge="1" parent="1" source="4" target="8"><mxGeometry relative="1" as="geometry"/></mxCell><mxCell id="26" style="edgeStyle=none;rounded=0;orthogonalLoop=1;jettySize=auto;html=1;exitX=1;exitY=0.3333333333333333;exitDx=0;exitDy=0;exitPerimeter=0;entryX=0;entryY=0.5;entryDx=0;entryDy=0;fontSize=12;" edge="1" parent="1" source="4" target="15"><mxGeometry relative="1" as="geometry"/></mxCell><mxCell id="27" style="edgeStyle=none;rounded=0;orthogonalLoop=1;jettySize=auto;html=1;exitX=1;exitY=0.3333333333333333;exitDx=0;exitDy=0;exitPerimeter=0;entryX=0;entryY=0.5;entryDx=0;entryDy=0;fontSize=12;" edge="1" parent="1" source="4" target="9"><mxGeometry relative="1" as="geometry"/></mxCell><mxCell id="28" style="edgeStyle=none;rounded=0;orthogonalLoop=1;jettySize=auto;html=1;exitX=1;exitY=0.3333333333333333;exitDx=0;exitDy=0;exitPerimeter=0;entryX=0;entryY=0.5;entryDx=0;entryDy=0;fontSize=12;" edge="1" parent="1" source="4" target="10"><mxGeometry relative="1" as="geometry"/></mxCell><mxCell id="29" style="edgeStyle=none;rounded=0;orthogonalLoop=1;jettySize=auto;html=1;exitX=1;exitY=0.3333333333333333;exitDx=0;exitDy=0;exitPerimeter=0;entryX=0;entryY=0.5;entryDx=0;entryDy=0;fontSize=12;" edge="1" parent="1" source="4" target="14"><mxGeometry relative="1" as="geometry"/></mxCell><mxCell id="30" style="edgeStyle=none;rounded=0;orthogonalLoop=1;jettySize=auto;html=1;exitX=1;exitY=0.3333333333333333;exitDx=0;exitDy=0;exitPerimeter=0;entryX=0;entryY=0.5;entryDx=0;entryDy=0;fontSize=12;" edge="1" parent="1" source="4" target="16"><mxGeometry relative="1" as="geometry"/></mxCell><mxCell id="31" style="edgeStyle=none;rounded=0;orthogonalLoop=1;jettySize=auto;html=1;exitX=1;exitY=0.3333333333333333;exitDx=0;exitDy=0;exitPerimeter=0;entryX=0;entryY=0.5;entryDx=0;entryDy=0;fontSize=18;" edge="1" parent="1" source="4" target="13"><mxGeometry relative="1" as="geometry"/></mxCell><mxCell id="32" style="edgeStyle=none;rounded=0;orthogonalLoop=1;jettySize=auto;html=1;exitX=1;exitY=0.3333333333333333;exitDx=0;exitDy=0;exitPerimeter=0;entryX=0;entryY=0.5;entryDx=0;entryDy=0;fontSize=18;" edge="1" parent="1" source="4" target="12"><mxGeometry relative="1" as="geometry"/></mxCell><mxCell id="4" value="Population Analyst&amp;nbsp;" style="shape=umlActor;verticalLabelPosition=bottom;verticalAlign=top;html=1;outlineConnect=0;" vertex="1" parent="1"><mxGeometry x="10" y="-360" width="110" height="360" as="geometry"/></mxCell><mxCell id="33" style="edgeStyle=none;rounded=0;orthogonalLoop=1;jettySize=auto;html=1;exitX=0;exitY=0.3333333333333333;exitDx=0;exitDy=0;exitPerimeter=0;entryX=1;entryY=0;entryDx=0;entryDy=0;fontSize=18;" edge="1" parent="1" source="7" target="15"><mxGeometry relative="1" as="geometry"><Array as="points"><mxPoint x="830" y="-157"/><mxPoint x="590" y="-130"/></Array></mxGeometry></mxCell><mxCell id="34" style="edgeStyle=none;rounded=0;orthogonalLoop=1;jettySize=auto;html=1;exitX=0;exitY=0.3333333333333333;exitDx=0;exitDy=0;exitPerimeter=0;entryX=1;entryY=0.5;entryDx=0;entryDy=0;fontSize=18;" edge="1" parent="1" source="7" target="9"><mxGeometry relative="1" as="geometry"><Array as="points"><mxPoint x="810" y="400"/></Array></mxGeometry></mxCell><mxCell id="35" style="edgeStyle=none;rounded=0;orthogonalLoop=1;jettySize=auto;html=1;exitX=0;exitY=0.3333333333333333;exitDx=0;exitDy=0;exitPerimeter=0;entryX=1;entryY=0.5;entryDx=0;entryDy=0;fontSize=18;" edge="1" parent="1" source="7" target="10"><mxGeometry relative="1" as="geometry"><Array as="points"><mxPoint x="810" y="420"/></Array></mxGeometry></mxCell><mxCell id="37" style="edgeStyle=none;rounded=0;orthogonalLoop=1;jettySize=auto;html=1;entryX=1;entryY=0.5;entryDx=0;entryDy=0;fontSize=18;exitX=0;exitY=0.3333333333333333;exitDx=0;exitDy=0;exitPerimeter=0;" edge="1" parent="1" source="7" target="14"><mxGeometry relative="1" as="geometry"><mxPoint x="1150" y="-220" as="sourcePoint"/><Array as="points"><mxPoint x="820" y="440"/></Array></mxGeometry></mxCell><mxCell id="38" style="edgeStyle=none;rounded=0;orthogonalLoop=1;jettySize=auto;html=1;exitX=0;exitY=0.3333333333333333;exitDx=0;exitDy=0;exitPerimeter=0;entryX=1;entryY=0.5;entryDx=0;entryDy=0;fontSize=18;" edge="1" parent="1" source="7" target="16"><mxGeometry relative="1" as="geometry"><Array as="points"><mxPoint x="820" y="460"/></Array></mxGeometry></mxCell><mxCell id="39" style="edgeStyle=none;rounded=0;orthogonalLoop=1;jettySize=auto;html=1;exitX=0;exitY=0.3333333333333333;exitDx=0;exitDy=0;exitPerimeter=0;entryX=1;entryY=0.5;entryDx=0;entryDy=0;fontSize=18;" edge="1" parent="1" source="7" target="13"><mxGeometry relative="1" as="geometry"><Array as="points"><mxPoint x="830" y="480"/></Array></mxGeometry></mxCell><mxCell id="40" style="edgeStyle=none;rounded=0;orthogonalLoop=1;jettySize=auto;html=1;exitX=0;exitY=0.3333333333333333;exitDx=0;exitDy=0;exitPerimeter=0;fontSize=18;" edge="1" parent="1" source="7" target="12"><mxGeometry relative="1" as="geometry"><Array as="points"><mxPoint x="840" y="520"/></Array></mxGeometry></mxCell><mxCell id="7" value="System Programmer&amp;nbsp;" style="shape=umlActor;verticalLabelPosition=bottom;verticalAlign=top;html=1;outlineConnect=0;" vertex="1" parent="1"><mxGeometry x="1210" y="-365" width="110" height="360" as="geometry"/></mxCell><mxCell id="8" value="&lt;font style=&quot;font-size: 18px;&quot;&gt;Log into the System&amp;nbsp;&lt;/font&gt;" style="ellipse;whiteSpace=wrap;html=1;fontSize=24;" vertex="1" parent="1"><mxGeometry x="270" y="-290" width="120" height="90" as="geometry"/></mxCell><mxCell id="9" value="&lt;font style=&quot;font-size: 18px;&quot;&gt;Select Top Countries&amp;nbsp;&lt;/font&gt;" style="ellipse;whiteSpace=wrap;html=1;fontSize=24;" vertex="1" parent="1"><mxGeometry x="270" y="-50" width="120" height="90" as="geometry"/></mxCell><mxCell id="10" value="&lt;font style=&quot;font-size: 18px;&quot;&gt;Select Cities Population&lt;/font&gt;&amp;nbsp;" style="ellipse;whiteSpace=wrap;html=1;fontSize=24;" vertex="1" parent="1"><mxGeometry x="280" y="60" width="120" height="90" as="geometry"/></mxCell><mxCell id="12" value="&lt;font style=&quot;font-size: 18px;&quot;&gt;Querying Language Data&amp;nbsp;&lt;/font&gt;" style="ellipse;whiteSpace=wrap;html=1;fontSize=24;" vertex="1" parent="1"><mxGeometry x="280" y="495" width="120" height="90" as="geometry"/></mxCell><mxCell id="13" value="&lt;font style=&quot;font-size: 12px;&quot;&gt;General Population of the world&lt;/font&gt;&amp;nbsp;" style="ellipse;whiteSpace=wrap;html=1;fontSize=24;" vertex="1" parent="1"><mxGeometry x="280" y="380" width="120" height="90" as="geometry"/></mxCell><mxCell id="14" value="&lt;font style=&quot;font-size: 18px;&quot;&gt;Breakdown of Peoples living locations&lt;/font&gt;&amp;nbsp;" style="ellipse;whiteSpace=wrap;html=1;fontSize=24;" vertex="1" parent="1"><mxGeometry x="280" y="170" width="120" height="90" as="geometry"/></mxCell><mxCell id="15" value="&lt;font style=&quot;font-size: 18px;&quot;&gt;Largest to Smallest Population&lt;/font&gt;" style="ellipse;whiteSpace=wrap;html=1;fontSize=24;" vertex="1" parent="1"><mxGeometry x="270" y="-170" width="120" height="90" as="geometry"/></mxCell><mxCell id="16" value="&lt;font style=&quot;font-size: 12px;&quot;&gt;Find the top N cities where N is a value in&lt;/font&gt;" style="ellipse;whiteSpace=wrap;html=1;fontSize=24;" vertex="1" parent="1"><mxGeometry x="280" y="280" width="120" height="90" as="geometry"/></mxCell><mxCell id="41" value="&lt;font style=&quot;font-size: 18px;&quot;&gt;Verify Analyst&lt;/font&gt;" style="ellipse;whiteSpace=wrap;html=1;fontSize=24;" vertex="1" parent="1"><mxGeometry x="510" y="-370" width="120" height="90" as="geometry"/></mxCell><mxCell id="42" value="&lt;font style=&quot;font-size: 18px;&quot;&gt;Error. Re-Enter Details&amp;nbsp;&lt;/font&gt;" style="ellipse;whiteSpace=wrap;html=1;fontSize=24;" vertex="1" parent="1"><mxGeometry x="520" y="-260" width="120" height="90" as="geometry"/></mxCell><mxCell id="43" value="&lt;font style=&quot;font-size: 10px;&quot;&gt;Query Data by Geographic critea (EG Country,City,Region Etc)&lt;/font&gt;" style="ellipse;whiteSpace=wrap;html=1;fontSize=24;" vertex="1" parent="1"><mxGeometry x="640" y="-110" width="180" height="110" as="geometry"/></mxCell><mxCell id="44" value="&lt;span style=&quot;font-size: 18px;&quot;&gt;Input Error when Query information&amp;nbsp;&lt;/span&gt;" style="ellipse;whiteSpace=wrap;html=1;fontSize=24;" vertex="1" parent="1"><mxGeometry x="760" y="50" width="120" height="90" as="geometry"/></mxCell><mxCell id="50" value="&lt;font style=&quot;font-size: 12px;&quot;&gt;&amp;lt;&amp;lt;Include&amp;gt;&amp;gt;&lt;/font&gt;" style="endArrow=open;endSize=12;dashed=1;html=1;rounded=0;fontSize=10;entryX=0;entryY=0.5;entryDx=0;entryDy=0;" edge="1" parent="1" target="43"><mxGeometry width="160" relative="1" as="geometry"><mxPoint x="390" y="-125.77" as="sourcePoint"/><mxPoint x="550" y="-125.77" as="targetPoint"/><Array as="points"><mxPoint x="500" y="-90"/></Array></mxGeometry></mxCell><mxCell id="51" value="&lt;font style=&quot;font-size: 12px;&quot;&gt;&amp;lt;&amp;lt;Include&amp;gt;&amp;gt;&lt;/font&gt;" style="endArrow=open;endSize=12;dashed=1;html=1;rounded=0;fontSize=10;entryX=0;entryY=0.5;entryDx=0;entryDy=0;exitX=1;exitY=0.5;exitDx=0;exitDy=0;" edge="1" parent="1" source="9"><mxGeometry width="160" relative="1" as="geometry"><mxPoint x="400" y="-115.76999999999998" as="sourcePoint"/><mxPoint x="639.9999999999968" y="-35" as="targetPoint"/><Array as="points"/></mxGeometry></mxCell><mxCell id="52" value="&lt;font style=&quot;font-size: 12px;&quot;&gt;&amp;lt;&amp;lt;Include&amp;gt;&amp;gt;&lt;/font&gt;" style="endArrow=open;endSize=12;dashed=1;html=1;rounded=0;fontSize=10;" edge="1" parent="1" target="43"><mxGeometry width="160" relative="1" as="geometry"><mxPoint x="400" y="100.00000000000003" as="sourcePoint"/><mxPoint x="639.9999999999968" y="180.77" as="targetPoint"/><Array as="points"/></mxGeometry></mxCell><mxCell id="53" value="&lt;font style=&quot;font-size: 12px;&quot;&gt;&amp;lt;&amp;lt;Include&amp;gt;&amp;gt;&lt;/font&gt;" style="endArrow=open;endSize=12;dashed=1;html=1;rounded=0;fontSize=10;entryX=0;entryY=0.5;entryDx=0;entryDy=0;exitX=1;exitY=0;exitDx=0;exitDy=0;" edge="1" parent="1" source="14"><mxGeometry width="160" relative="1" as="geometry"><mxPoint x="420" y="-95.76999999999998" as="sourcePoint"/><mxPoint x="659.9999999999968" y="-15" as="targetPoint"/><Array as="points"><mxPoint x="560" y="90"/><mxPoint x="610" y="40"/></Array></mxGeometry></mxCell><mxCell id="54" value="&lt;font style=&quot;font-size: 12px;&quot;&gt;&amp;lt;&amp;lt;Include&amp;gt;&amp;gt;&lt;/font&gt;" style="endArrow=open;endSize=12;dashed=1;html=1;rounded=0;fontSize=10;entryX=0;entryY=0.5;entryDx=0;entryDy=0;exitX=1.025;exitY=0.336;exitDx=0;exitDy=0;exitPerimeter=0;" edge="1" parent="1" source="16"><mxGeometry width="160" relative="1" as="geometry"><mxPoint x="430" y="-85.76999999999998" as="sourcePoint"/><mxPoint x="669.9999999999968" y="-5" as="targetPoint"/><Array as="points"><mxPoint x="570" y="270"/></Array></mxGeometry></mxCell><mxCell id="55" value="&lt;font style=&quot;font-size: 12px;&quot;&gt;&amp;lt;&amp;lt;Include&amp;gt;&amp;gt;&lt;/font&gt;" style="endArrow=open;endSize=12;dashed=1;html=1;rounded=0;fontSize=10;exitX=1;exitY=0;exitDx=0;exitDy=0;" edge="1" parent="1" source="13"><mxGeometry width="160" relative="1" as="geometry"><mxPoint x="440" y="-75.76999999999998" as="sourcePoint"/><mxPoint x="700" as="targetPoint"/><Array as="points"><mxPoint x="600" y="420"/></Array></mxGeometry></mxCell><mxCell id="56" value="&lt;font style=&quot;font-size: 12px;&quot;&gt;&amp;lt;&amp;lt;Include&amp;gt;&amp;gt;&lt;/font&gt;" style="endArrow=open;endSize=12;dashed=1;html=1;rounded=0;fontSize=10;exitX=1;exitY=0;exitDx=0;exitDy=0;" edge="1" parent="1" source="12"><mxGeometry width="160" relative="1" as="geometry"><mxPoint x="399.99810203684217" y="388.3170523315787" as="sourcePoint"/><mxPoint x="717.39" y="-5" as="targetPoint"/><Array as="points"><mxPoint x="660" y="500"/></Array></mxGeometry></mxCell><mxCell id="57" value="&amp;lt;&amp;lt;&lt;font style=&quot;font-size: 12px;&quot;&gt;Exclude&lt;/font&gt;&amp;gt;&amp;gt;" style="html=1;verticalAlign=bottom;endArrow=open;dashed=1;endSize=8;rounded=0;fontSize=12;exitX=0;exitY=0;exitDx=0;exitDy=0;entryX=1;entryY=1;entryDx=0;entryDy=0;" edge="1" parent="1" source="44" target="15"><mxGeometry x="0.2503" y="-3" relative="1" as="geometry"><mxPoint x="790" y="190" as="sourcePoint"/><mxPoint x="710" y="190" as="targetPoint"/><Array as="points"><mxPoint x="500" y="-60"/></Array><mxPoint as="offset"/></mxGeometry></mxCell><mxCell id="58" value="&amp;lt;&amp;lt;&lt;font style=&quot;font-size: 12px;&quot;&gt;Exclude&lt;/font&gt;&amp;gt;&amp;gt;" style="html=1;verticalAlign=bottom;endArrow=open;dashed=1;endSize=8;rounded=0;fontSize=12;exitX=0;exitY=0.5;exitDx=0;exitDy=0;entryX=1;entryY=0;entryDx=0;entryDy=0;" edge="1" parent="1" source="44" target="9"><mxGeometry x="0.275" y="9" relative="1" as="geometry"><mxPoint x="787.3918979631553" y="73.31705233157709" as="sourcePoint"/><mxPoint x="382.6081020368422" y="-83.3170523315789" as="targetPoint"/><Array as="points"/><mxPoint x="1" y="1" as="offset"/></mxGeometry></mxCell><mxCell id="59" value="&amp;lt;&amp;lt;&lt;font style=&quot;font-size: 12px;&quot;&gt;Exclude&lt;/font&gt;&amp;gt;&amp;gt;" style="html=1;verticalAlign=bottom;endArrow=open;dashed=1;endSize=8;rounded=0;fontSize=12;exitX=0;exitY=0.5;exitDx=0;exitDy=0;entryX=1;entryY=0.5;entryDx=0;entryDy=0;" edge="1" parent="1" target="10"><mxGeometry x="0.7295" y="1" relative="1" as="geometry"><mxPoint x="770.0000000000034" y="105" as="sourcePoint"/><mxPoint x="382.6081020368422" y="-26.682947668420866" as="targetPoint"/><Array as="points"><mxPoint x="590" y="160"/></Array><mxPoint as="offset"/></mxGeometry></mxCell><mxCell id="61" value="&amp;lt;&amp;lt;&lt;font style=&quot;font-size: 12px;&quot;&gt;Exclude&lt;/font&gt;&amp;gt;&amp;gt;" style="html=1;verticalAlign=bottom;endArrow=open;dashed=1;endSize=8;rounded=0;fontSize=12;exitX=0;exitY=1;exitDx=0;exitDy=0;" edge="1" parent="1" source="44" target="14"><mxGeometry x="0.2665" y="9" relative="1" as="geometry"><mxPoint x="780.0000000000034" y="115" as="sourcePoint"/><mxPoint x="410" y="115" as="targetPoint"/><Array as="points"><mxPoint x="600" y="170"/></Array><mxPoint y="1" as="offset"/></mxGeometry></mxCell><mxCell id="62" value="&amp;lt;&amp;lt;&lt;font style=&quot;font-size: 12px;&quot;&gt;Exclude&lt;/font&gt;&amp;gt;&amp;gt;" style="html=1;verticalAlign=bottom;endArrow=open;dashed=1;endSize=8;rounded=0;fontSize=12;exitX=0.5;exitY=1;exitDx=0;exitDy=0;entryX=0.965;entryY=0.222;entryDx=0;entryDy=0;entryPerimeter=0;" edge="1" parent="1" source="44" target="16"><mxGeometry x="0.7896" y="4" relative="1" as="geometry"><mxPoint x="790.0000000000034" y="125" as="sourcePoint"/><mxPoint x="420" y="125" as="targetPoint"/><Array as="points"><mxPoint x="610" y="180"/></Array><mxPoint as="offset"/></mxGeometry></mxCell><mxCell id="63" value="&amp;lt;&amp;lt;&lt;font style=&quot;font-size: 12px;&quot;&gt;Exclude&lt;/font&gt;&amp;gt;&amp;gt;" style="html=1;verticalAlign=bottom;endArrow=open;dashed=1;endSize=8;rounded=0;fontSize=12;entryX=1;entryY=0;entryDx=0;entryDy=0;exitX=1;exitY=1;exitDx=0;exitDy=0;" edge="1" parent="1" source="44" target="13"><mxGeometry x="0.8298" y="1" relative="1" as="geometry"><mxPoint x="820" y="140" as="sourcePoint"/><mxPoint x="430" y="135" as="targetPoint"/><Array as="points"><mxPoint x="760" y="280"/></Array><mxPoint as="offset"/></mxGeometry></mxCell><mxCell id="64" value="&amp;lt;&amp;lt;&lt;font style=&quot;font-size: 12px;&quot;&gt;Exclude&lt;/font&gt;&amp;gt;&amp;gt;" style="html=1;verticalAlign=bottom;endArrow=open;dashed=1;endSize=8;rounded=0;fontSize=12;entryX=1;entryY=0;entryDx=0;entryDy=0;exitX=1;exitY=0.5;exitDx=0;exitDy=0;" edge="1" parent="1" source="44" target="12"><mxGeometry x="0.8298" y="1" relative="1" as="geometry"><mxPoint x="872.6081020368445" y="136.68294766842268" as="sourcePoint"/><mxPoint x="392.6081020368422" y="403.3170523315787" as="targetPoint"/><Array as="points"><mxPoint x="810" y="380"/></Array><mxPoint as="offset"/></mxGeometry></mxCell><mxCell id="65" value="&amp;lt;&amp;lt;&lt;font style=&quot;font-size: 12px;&quot;&gt;Exclude&lt;/font&gt;&amp;gt;&amp;gt;" style="html=1;verticalAlign=bottom;endArrow=open;dashed=1;endSize=8;rounded=0;fontSize=12;entryX=1;entryY=0.5;entryDx=0;entryDy=0;exitX=0;exitY=0.5;exitDx=0;exitDy=0;" edge="1" parent="1" source="42" target="8"><mxGeometry x="-0.055" y="-9" relative="1" as="geometry"><mxPoint x="882.6081020368445" y="146.68294766842268" as="sourcePoint"/><mxPoint x="402.6081020368422" y="413.3170523315787" as="targetPoint"/><Array as="points"><mxPoint x="470" y="-240"/></Array><mxPoint y="-1" as="offset"/></mxGeometry></mxCell><mxCell id="66" value="&lt;font style=&quot;font-size: 12px;&quot;&gt;&amp;lt;&amp;lt;Include&amp;gt;&amp;gt;&lt;/font&gt;" style="endArrow=open;endSize=12;dashed=1;html=1;rounded=0;fontSize=10;entryX=0;entryY=0.5;entryDx=0;entryDy=0;exitX=1;exitY=0;exitDx=0;exitDy=0;" edge="1" parent="1" source="8" target="41"><mxGeometry width="160" relative="1" as="geometry"><mxPoint x="400" y="-115.76999999999998" as="sourcePoint"/><mxPoint x="649.9999999999982" y="-45" as="targetPoint"/><Array as="points"/></mxGeometry></mxCell></root></mxGraphModel></diagram></mxfile>